<?xml version="1.0" encoding="utf-8"?>
<!-- Generator: Adobe Illustrator 20.0.0, SVG Export Plug-In . SVG Version: 6.00 Build 0)  -->
<svg version="1.1" id="Layer_1" xmlns="http://www.w3.org/2000/svg" xmlns:xlink="http://www.w3.org/1999/xlink" x="0px" y="0px"
	 viewBox="0 0 651 411" style="enable-background:new 0 0 651 411;" xml:space="preserve">
<style type="text/css">
	.st0{opacity:0.5;fill:#7C94A1;}
	.st1{fill:#7C94A1;fill-opacity:0.502;}
	.st2{fill:#4C81A1;fill-opacity:0.502;}
	.st3{fill:#284455;fill-opacity:0.502;}
	.st4{fill:none;stroke:#233B4A;stroke-width:1.067;stroke-linejoin:round;stroke-miterlimit:1;}
	.st5{fill:#233B4A;stroke:#233B4A;stroke-width:0.7087;stroke-linecap:round;stroke-linejoin:round;stroke-miterlimit:10;}
	.st6{fill:none;stroke:#333333;stroke-width:1.067;stroke-linejoin:round;stroke-miterlimit:10;}
	.st7{font-family:'Optima-Bold';}
	.st8{font-size:12px;}
	.st9{opacity:0.5;fill:#4C81A1;}
	.st10{opacity:0.5;fill:#284455;}
	.st11{font-family:'Optima-Regular';}
	.st12{font-size:7px;}
	.st13{fill:none;stroke:#000000;stroke-width:0.75;stroke-miterlimit:10;}
	.st14{font-size:24px;}
</style>
<rect x="479.2" y="167.6" transform="matrix(8.978933e-11 1 -1 8.978933e-11 708 -354)" class="st0" width="103.5" height="18.8"/>
<path class="st1" d="M170,328.5h33.3v-33.3H170V328.5z"/>
<path class="st1" d="M170,261.9h92.5v-33.3H170V261.9z"/>
<path class="st1" d="M170,195.3h184.6V162H170V195.3z"/>
<path class="st1" d="M170,128.7h314.8V95.4H170V128.7z"/>
<path class="st2" d="M170,328.5h26.9v-33.3H170V328.5z"/>
<path class="st2" d="M170,261.9h74.8v-33.3H170V261.9z"/>
<path class="st2" d="M170,195.3h149.4V162H170V195.3z"/>
<path class="st2" d="M170,128.7h254.8V95.4H170V128.7z"/>
<path class="st3" d="M170,328.5h24.2v-33.3H170V328.5z"/>
<path class="st3" d="M170,261.9h67.2v-33.3H170V261.9z"/>
<path class="st3" d="M170,195.3h134.2V162H170V195.3z"/>
<path class="st3" d="M170,128.7h228.9V95.4H170V128.7z"/>
<path d="M170,318.5h23.8v-13.3H170V318.5z"/>
<path d="M170,251.9h40.8v-13.3H170V251.9z"/>
<path d="M170,185.3h120.2V172H170V185.3z"/>
<path d="M170,118.7h186.7v-13.3H170V118.7z"/>
<path class="st4" d="M200.5,326.8v-30"/>
<path class="st4" d="M200.5,311.8L200.5,311.8"/>
<path class="st4" d="M200.5,326.8v-30"/>
<path class="st4" d="M255,260.2v-30"/>
<path class="st4" d="M255,245.2L255,245.2"/>
<path class="st4" d="M255,260.2v-30"/>
<path class="st4" d="M339.6,193.6v-30"/>
<path class="st4" d="M339.6,178.6L339.6,178.6"/>
<path class="st4" d="M339.6,193.6v-30"/>
<path class="st4" d="M459.4,127v-30"/>
<path class="st4" d="M459.4,112L459.4,112"/>
<path class="st4" d="M459.4,127v-30"/>
<path class="st5" d="M203.6,311.8c0,4-6,4-6,0C197.5,307.8,203.6,307.8,203.6,311.8"/>
<path class="st5" d="M258,245.2c0,4-6,4-6,0S258,241.2,258,245.2"/>
<path class="st5" d="M342.7,178.6c0,4-6,4-6,0C336.6,174.6,342.7,174.6,342.7,178.6"/>
<path class="st5" d="M462.4,112c0,4-6,4-6,0C456.4,108,462.4,108,462.4,112"/>
<path class="st6" d="M170,360.6V353"/>
<path class="st6" d="M249,360v-7.6"/>
<path class="st6" d="M330,360v-7.6"/>
<path class="st6" d="M406,360v-7.6"/>
<path class="st6" d="M489,359.6V352"/>
<text transform="matrix(1 0 0 1 81 115)" class="st7 st8">AFRICA TOTAL</text>
<text transform="matrix(1 0 0 1 52 182)" class="st7 st8">SOUTHERN AFRICA</text>
<text transform="matrix(1 0 0 1 66 248)" class="st7 st8">EASTERN AFRICA</text>
<text transform="matrix(1 0 0 1 65 315)" class="st7 st8">CENTRAL AFRICA</text>
<text transform="matrix(1 0 0 1 166.6641 376)" class="st7 st8">0</text>
<text transform="matrix(1 0 0 1 475.3262 376)" class="st7 st8">800K</text>
<text transform="matrix(1 0 0 1 393.3262 376)" class="st7 st8">600K</text>
<text transform="matrix(1 0 0 1 317.3262 376)" class="st7 st8">400K</text>
<text transform="matrix(1 0 0 1 236.3262 375)" class="st7 st8">200K</text>
<rect x="513.8" y="236.6" transform="matrix(8.984262e-11 1 -1 8.984262e-11 777 -285)" width="34.5" height="18.8"/>
<rect x="496.5" y="185.1" transform="matrix(8.978933e-11 1 -1 8.978933e-11 725.5 -336.5)" class="st9" width="69" height="18.8"/>
<rect x="513.8" y="201.6" transform="matrix(8.978933e-11 1 -1 8.978933e-11 742 -320)" class="st10" width="34.5" height="18.8"/>
<path class="st5" d="M535,107c0,4-6,4-6,0C529,103,535,103,535,107"/>
<path class="st4" d="M521.8,106.7h19"/>
<text transform="matrix(1 0 0 1 543.6587 257)" class="st11 st12">ACTUAL GROWTH</text>
<text transform="matrix(1 0 0 1 544.0234 226)" class="st11 st12">2% GROWTH</text>
<text transform="matrix(1 0 0 1 544.0234 191)" class="st11 st12">3% GROWTH</text>
<text transform="matrix(1 0 0 1 544.0234 157)" class="st11 st12">5% GROWTH</text>
<text transform="matrix(1 0 0 1 544.7158 109)" class="st11 st12">AVG. GROWTH</text>
<rect x="512" y="96" class="st13" width="106" height="175"/>
<text transform="matrix(1 0 0 1 171 28)"><tspan x="0" y="0" class="st7 st14">2013 ELEPHANT POPULATION </tspan><tspan x="0" y="28.8" class="st7 st14">vs. EXPECTED POPULATION</tspan></text>
</svg>
